<?xml version="1.0" encoding="iso-8859-1"?>
<!-- Generator: Adobe Illustrator 19.0.0, SVG Export Plug-In . SVG Version: 6.00 Build 0)  -->
<svg version="1.1" id="Capa_1" xmlns="http://www.w3.org/2000/svg" xmlns:xlink="http://www.w3.org/1999/xlink" x="0px" y="0px"
	 viewBox="0 0 491.037 491.037" style="enable-background:new 0 0 491.037 491.037;" xml:space="preserve">
<path style="fill:#FFC107;" d="M487.806,238.271c0,0-26.133-26.709-60.949-62.144V75.028c0-5.891-4.776-10.667-10.667-10.667
	h-99.883C249.79-2.305,249.577-2.241,241.491,1.13c-1.497,0.623-2.832,1.579-3.904,2.795l-60.48,60.437H74.857
	c-5.891,0-10.667,4.776-10.667,10.667v102.293L3.305,238.186c-4.164,4.165-4.164,10.917,0,15.083l60.885,60.885v102.208
	c0,5.891,4.776,10.667,10.667,10.667h102.251l60.885,60.885c4.165,4.164,10.917,4.164,15.083,0l60.864-60.885H416.19
	c5.891,0,10.667-4.776,10.667-10.667V314.154l60.885-60.885C491.867,249.131,491.896,242.444,487.806,238.271z"/>
<circle style="fill:#FAFAFA;" cx="245.523" cy="245.695" r="138.667"/>
<path style="fill:#FFC107;" d="M245.523,149.695c-12.35,0.013-24.581,2.425-36.011,7.104c-5.461,2.21-8.097,8.428-5.887,13.889
	c1.084,2.679,3.208,4.803,5.887,5.887c38.174,15.378,56.654,58.79,41.277,96.963c-7.573,18.8-22.477,33.703-41.277,41.277
	c-5.461,2.209-8.097,8.428-5.887,13.889c1.084,2.679,3.208,4.803,5.887,5.887c49.096,20.016,105.122-3.559,125.138-52.655
	s-3.559-105.122-52.655-125.138C270.417,152.078,258.027,149.665,245.523,149.695z"/>
<path d="M245.523,491.028c-2.831,0.005-5.548-1.115-7.552-3.115l-60.864-60.885H74.857c-5.891,0-10.667-4.776-10.667-10.667V314.154
	L3.305,253.268c-4.164-4.165-4.164-10.917,0-15.083l60.885-60.864V75.028c0-5.891,4.776-10.667,10.667-10.667h102.251l60.48-60.437
	c1.072-1.216,2.407-2.172,3.904-2.795c8.085-3.349,8.299-3.435,74.816,63.232h99.883c5.891,0,10.667,4.776,10.667,10.667v101.099
	c34.816,35.435,60.949,62.144,60.949,62.144c4.066,4.148,4.066,10.786,0,14.933l-60.949,60.949v102.208
	c0,5.891-4.776,10.667-10.667,10.667H313.939l-60.885,60.885C251.055,489.908,248.347,491.028,245.523,491.028z M85.523,405.695h96
	c2.831-0.005,5.548,1.115,7.552,3.115l56.448,56.512l56.448-56.448c1.994-2.023,4.712-3.167,7.552-3.179h96v-96
	c-0.005-2.831,1.115-5.548,3.115-7.552l56.619-56.448c-10.667-10.773-31.531-32.171-56.597-57.6
	c-1.968-1.995-3.071-4.685-3.072-7.488V85.695h-93.696c-2.831,0.005-5.548-1.115-7.552-3.115
	c-34.539-34.581-50.624-50.219-58.112-57.131l-57.173,57.173c-2.006,1.978-4.713,3.083-7.531,3.072h-96v96
	c0.005,2.831-1.115,5.548-3.115,7.552l-56.469,56.448l56.448,56.448c2.007,2.001,3.135,4.718,3.136,7.552V405.695z"/>
<path d="M245.523,384.362c-76.583,0-138.667-62.083-138.667-138.667s62.083-138.667,138.667-138.667S384.19,169.112,384.19,245.695
	C384.096,322.24,322.068,384.268,245.523,384.362z M245.523,128.362c-64.801,0-117.333,52.532-117.333,117.333
	s52.532,117.333,117.333,117.333s117.333-52.532,117.333-117.333C362.786,180.923,310.296,128.432,245.523,128.362z"/>
<path d="M245.523,341.695c-12.35-0.015-24.58-2.428-36.011-7.104c-5.461-2.21-8.097-8.428-5.887-13.889
	c1.084-2.679,3.208-4.803,5.887-5.887c38.174-15.378,56.654-58.79,41.277-96.963c-7.573-18.8-22.477-33.703-41.277-41.277
	c-5.461-2.209-8.097-8.428-5.887-13.889c1.084-2.679,3.208-4.803,5.887-5.887c49.096-20.016,105.122,3.559,125.138,52.655
	s-3.559,105.122-52.655,125.138C270.417,339.312,258.027,341.725,245.523,341.695z M241.918,320.362
	c41.184,2.09,76.265-29.601,78.356-70.786c2.09-41.184-29.601-76.265-70.786-78.356c-2.522-0.128-5.048-0.128-7.57,0
	c41.184,33.297,47.578,93.675,14.282,134.86C251.955,311.33,247.168,316.117,241.918,320.362z"/>
<g>
</g>
<g>
</g>
<g>
</g>
<g>
</g>
<g>
</g>
<g>
</g>
<g>
</g>
<g>
</g>
<g>
</g>
<g>
</g>
<g>
</g>
<g>
</g>
<g>
</g>
<g>
</g>
<g>
</g>
</svg>
